<svg xmlns="http://www.w3.org/2000/svg" width="32" height="32" viewBox="0 0 32 32"><path d="M0,0H32V32H0Z" fill="none"/><path d="M10.4,13.4A4.2,4.2,0,1,0,6.2,9.2,4.2,4.2,0,0,0,10.4,13.4Zm0-6A1.8,1.8,0,1,1,8.6,9.2,1.8,1.8,0,0,1,10.4,7.4Zm.06,12H5.324A12.449,12.449,0,0,1,10.4,18.2c.132,0,.276.012.408.012a5.5,5.5,0,0,1,1.968-2.172A14.071,14.071,0,0,0,10.4,15.8C7.592,15.8,2,17.2,2,20v1.8h8.4V20A3.281,3.281,0,0,1,10.46,19.4Zm8.94-3c-2.208,0-6.6,1.212-6.6,3.6v1.8H26V20C26,17.612,21.608,16.4,19.4,16.4Zm1.452-2.184a3,3,0,1,0-2.9,0,2.937,2.937,0,0,0,2.9,0Z" transform="translate(2 3)" fill="#606060"/></svg>