<svg xmlns="http://www.w3.org/2000/svg" width="32" height="32" viewBox="0 0 32 32"><path d="M24.333,5.667H21.667V3H8.333V5.667H5.667A2.675,2.675,0,0,0,3,8.333V9.667a6.655,6.655,0,0,0,5.853,6.587A6.679,6.679,0,0,0,13.667,20.2v4.133H8.333V27H21.667V24.333H16.333V20.2a6.679,6.679,0,0,0,4.813-3.947A6.655,6.655,0,0,0,27,9.667V8.333a2.675,2.675,0,0,0-2.667-2.666Zm-18.667,4V8.333H8.333v5.093A4.014,4.014,0,0,1,5.667,9.667Zm9.333,8a4.012,4.012,0,0,1-4-4v-8h8v8a4.012,4.012,0,0,1-4,4Zm9.333-8a4.014,4.014,0,0,1-2.667,3.76V8.333h2.667Z" transform="translate(0.923 1)" fill="#00e55c"/><rect width="32" height="32" fill="none"/></svg>