<svg xmlns="http://www.w3.org/2000/svg" width="32" height="32" viewBox="0 0 32 32"><g transform="translate(0 -0.2)"><rect width="32" height="32" transform="translate(0 0.2)" fill="none"/><g transform="translate(4 4.867)"><path d="M35.135,257.8h-.283v22.267h.283Zm2.087,10.842v.283c3.8,0,4.174,2.547,4.262,3.785H41.7v-7.764h-.212c-.212,2.476-1.309,3.7-4.262,3.7m0-8.755v.283H39.4c3.626,0,5.43,2.14,6.19,5.536H45.8v-5.819ZM33.473,277.7v.283H28.415l-6.615-9.5,7.428-8.578h2.158v.283H29.352l-5.288,6.1,7.959,11.425h1.45Z" transform="translate(-21.8 -257.8)" fill="#231815"/></g></g></svg>