<svg xmlns="http://www.w3.org/2000/svg" width="32" height="32" viewBox="0 0 32 32"><g transform="translate(0 0.356)"><rect width="32" height="32" transform="translate(0 -0.356)" fill="none"/><g transform="translate(6 4)"><path d="M38.4,161.306c-1,5.4-5.271,9.947-6.5,11.277,2.482-2.026,6.755-6.279,7.633-12.16a17.066,17.066,0,0,0-.206-7.523l-1.229.24a15.785,15.785,0,0,1,.3,8.166" transform="translate(-29.354 -149.034)" fill="#cf2e2f"/><path d="M10.4,113.046a1.02,1.02,0,0,0-.883-.408l-14.378,3.1a.168.168,0,0,0-.192-.053c-.254.053-2.458.533-2.612.571s-.019.518.1.49,2.4-.528,2.612-.571c.12-.024.149-.091.154-.158l13.456-2.876a.815.815,0,0,1,.927.374,5.024,5.024,0,0,1,.437.739.158.158,0,0,0,.192.091l.711-.245c.139-.053.082-.158.082-.158a8.251,8.251,0,0,0-.6-.893" transform="translate(8.378 -110.692)" fill="#0f3b5b" fill-rule="evenodd"/><path d="M162.818,393.6a24.358,24.358,0,0,1-.739,8.579,18.811,18.811,0,0,0-.278-6.663" transform="translate(-153.018 -378.179)" fill="#0f3b5b" fill-rule="evenodd"/><path d="M69.031,239.2c2.208,1.685,1.306,3.317.816,4.229a3.094,3.094,0,0,0-.446,2.535,2.673,2.673,0,0,1-.014,1.32,5.041,5.041,0,0,1-.686,1.431l.014-.014s1.68-1.162,1.431-2.717c-.144-.907.206-1.469.778-2.53.485-.9,1-3.831-1.891-4.253" transform="translate(-64.387 -231.191)" fill="#ffbe36" fill-rule="evenodd"/><path d="M-20.978,181.76a3.458,3.458,0,0,1-.115-.326c-.082-.317-.048-.5.192-.557.082-.024.269-.067.418-.1.216-.048.379,0,.451.3.211.859-.173.581.293,1.287s1.023,1.546,1.023,1.546a2.067,2.067,0,0,0,.6-.917,1.893,1.893,0,0,1,2.156-1.613,3.775,3.775,0,0,0-1.171,1.882,3.189,3.189,0,0,1-1.978,2.069s-1.114-2.189-1.325-2.736-.451-.538-.547-.835" transform="translate(21.133 -175.561)" fill="#52a949" fill-rule="evenodd"/><path d="M19.607,125.039a1.018,1.018,0,0,1,.466-.221,1,1,0,0,0-1.551.47.653.653,0,0,1-1.152.029.934.934,0,0,0,1.181.994c.744-.154.624-.9,1.056-1.272" transform="translate(-15.515 -122.1)" fill="#52a949" fill-rule="evenodd"/><path d="M66.151,74.786c.192.163.067.274,0,.418-.379.759.84.653.84.653l-.235-.235a.3.3,0,0,1-.115-.2l.053-.139a.908.908,0,0,0,.144-.408c.01-.206-.091-.293-.23-.408l-.019-.019a1.492,1.492,0,0,0,.984-1.253l-1.642-.226a1.508,1.508,0,0,0-1.978-.4A2.016,2.016,0,0,0,62.8,74.315a3.1,3.1,0,0,1,.648-.831,1.4,1.4,0,0,1,2.18.024s1.071.086,1.215.11a.8.8,0,0,1-.288.37c-.514.269-.96,0-1.291.043a1.51,1.51,0,0,0-1.071.687,2.048,2.048,0,0,1,1.959.067" transform="translate(-58.77 -72.375)" fill="#0f3b5b" fill-rule="evenodd"/><path d="M185.038,540.638a.314.314,0,0,1-.538-.226.29.29,0,0,1,.091-.221.3.3,0,0,1,.221-.091.308.308,0,0,1,.226.091.3.3,0,0,1,.091.221.328.328,0,0,1-.091.226m-.418-.418a.269.269,0,0,0-.082.192.257.257,0,0,0,.077.192.267.267,0,0,0,.384,0,.267.267,0,0,0,0-.384.261.261,0,0,0-.379,0m.187.019.1.01.053.086-.034.067-.053.014.062.034.019.053v.048l0,.019v0H184.9v-.048l-.034-.082-.067-.01h-.048v.134h-.062v-.331Zm.062.053-.072-.014h-.053v.125h.053l.058-.01.034-.053Z" transform="translate(-174.628 -517.646)" fill="#0f3b5b"/></g></g></svg>